<mxfile host="app.diagrams.net" modified="2020-03-16T13:48:35.599Z" agent="Mozilla/5.0 (Windows NT 10.0; Win64; x64) AppleWebKit/537.36 (KHTML, like Gecko) Chrome/80.0.3987.132 Safari/537.36" etag="jcutSLMf-nR5jvqPGNnW" version="12.8.5" type="github" pages="5">
  <diagram id="KgouGHTUGytn4UWCruJQ" name="Page-1">
    <mxGraphModel dx="1038" dy="580" grid="1" gridSize="10" guides="1" tooltips="1" connect="1" arrows="1" fold="1" page="1" pageScale="1" pageWidth="10000" pageHeight="10000" math="0" shadow="0">
      <root>
        <mxCell id="0" />
        <mxCell id="1" parent="0" />
        <mxCell id="XMLvKD6NTCS2bfs8ey_3-3" value="Троеточие&lt;br&gt;" style="edgeStyle=orthogonalEdgeStyle;rounded=0;orthogonalLoop=1;jettySize=auto;html=1;entryX=0.5;entryY=0;entryDx=0;entryDy=0;" parent="1" source="XMLvKD6NTCS2bfs8ey_3-1" target="XMLvKD6NTCS2bfs8ey_3-2" edge="1">
          <mxGeometry relative="1" as="geometry" />
        </mxCell>
        <mxCell id="XMLvKD6NTCS2bfs8ey_3-1" value="Главное меню" style="rounded=0;whiteSpace=wrap;html=1;" parent="1" vertex="1">
          <mxGeometry x="10" y="20" width="150" height="40" as="geometry" />
        </mxCell>
        <mxCell id="XMLvKD6NTCS2bfs8ey_3-13" style="edgeStyle=orthogonalEdgeStyle;rounded=0;orthogonalLoop=1;jettySize=auto;html=1;entryX=0.5;entryY=0;entryDx=0;entryDy=0;" parent="1" source="XMLvKD6NTCS2bfs8ey_3-2" target="XMLvKD6NTCS2bfs8ey_3-9" edge="1">
          <mxGeometry relative="1" as="geometry" />
        </mxCell>
        <mxCell id="XMLvKD6NTCS2bfs8ey_3-19" style="edgeStyle=orthogonalEdgeStyle;rounded=0;orthogonalLoop=1;jettySize=auto;html=1;entryX=0.5;entryY=0;entryDx=0;entryDy=0;exitX=1;exitY=0.5;exitDx=0;exitDy=0;" parent="1" source="XMLvKD6NTCS2bfs8ey_3-2" target="XMLvKD6NTCS2bfs8ey_3-11" edge="1">
          <mxGeometry relative="1" as="geometry">
            <mxPoint x="2030" y="100" as="sourcePoint" />
          </mxGeometry>
        </mxCell>
        <mxCell id="XMLvKD6NTCS2bfs8ey_3-2" value="Редактор сценариев&lt;br&gt;" style="rounded=0;whiteSpace=wrap;html=1;" parent="1" vertex="1">
          <mxGeometry x="2700" y="70" width="150" height="40" as="geometry" />
        </mxCell>
        <mxCell id="XMLvKD6NTCS2bfs8ey_3-21" style="edgeStyle=orthogonalEdgeStyle;rounded=0;orthogonalLoop=1;jettySize=auto;html=1;entryX=0.5;entryY=0;entryDx=0;entryDy=0;" parent="1" source="XMLvKD6NTCS2bfs8ey_3-29" target="XMLvKD6NTCS2bfs8ey_3-20" edge="1">
          <mxGeometry relative="1" as="geometry" />
        </mxCell>
        <mxCell id="XMLvKD6NTCS2bfs8ey_3-32" style="edgeStyle=orthogonalEdgeStyle;rounded=0;orthogonalLoop=1;jettySize=auto;html=1;" parent="1" source="XMLvKD6NTCS2bfs8ey_3-4" target="XMLvKD6NTCS2bfs8ey_3-31" edge="1">
          <mxGeometry relative="1" as="geometry">
            <Array as="points">
              <mxPoint x="800" y="210" />
            </Array>
          </mxGeometry>
        </mxCell>
        <mxCell id="XMLvKD6NTCS2bfs8ey_3-4" value="Воздушная обстановка" style="rounded=0;whiteSpace=wrap;html=1;" parent="1" vertex="1">
          <mxGeometry x="520" y="180" width="120" height="60" as="geometry" />
        </mxCell>
        <mxCell id="XMLvKD6NTCS2bfs8ey_3-5" value="Наземная обстановка" style="rounded=0;whiteSpace=wrap;html=1;" parent="1" vertex="1">
          <mxGeometry x="1490" y="200" width="120" height="60" as="geometry" />
        </mxCell>
        <mxCell id="XMLvKD6NTCS2bfs8ey_3-14" style="edgeStyle=orthogonalEdgeStyle;rounded=0;orthogonalLoop=1;jettySize=auto;html=1;entryX=0.5;entryY=0;entryDx=0;entryDy=0;" parent="1" source="XMLvKD6NTCS2bfs8ey_3-9" target="XMLvKD6NTCS2bfs8ey_3-4" edge="1">
          <mxGeometry relative="1" as="geometry" />
        </mxCell>
        <mxCell id="XMLvKD6NTCS2bfs8ey_3-17" style="edgeStyle=orthogonalEdgeStyle;rounded=0;orthogonalLoop=1;jettySize=auto;html=1;entryX=0.5;entryY=0;entryDx=0;entryDy=0;" parent="1" source="XMLvKD6NTCS2bfs8ey_3-9" target="XMLvKD6NTCS2bfs8ey_3-5" edge="1">
          <mxGeometry relative="1" as="geometry" />
        </mxCell>
        <mxCell id="XMLvKD6NTCS2bfs8ey_3-9" value="Создание сценария" style="rounded=0;whiteSpace=wrap;html=1;" parent="1" vertex="1">
          <mxGeometry x="980" y="130" width="120" height="60" as="geometry" />
        </mxCell>
        <mxCell id="XMLvKD6NTCS2bfs8ey_3-11" value="Редактирование существующего сценария" style="rounded=0;whiteSpace=wrap;html=1;" parent="1" vertex="1">
          <mxGeometry x="4294" y="148.86" width="120" height="60" as="geometry" />
        </mxCell>
        <mxCell id="XMLvKD6NTCS2bfs8ey_3-26" style="edgeStyle=orthogonalEdgeStyle;rounded=0;orthogonalLoop=1;jettySize=auto;html=1;entryX=0.5;entryY=0;entryDx=0;entryDy=0;" parent="1" source="XMLvKD6NTCS2bfs8ey_3-20" target="XMLvKD6NTCS2bfs8ey_3-24" edge="1">
          <mxGeometry relative="1" as="geometry" />
        </mxCell>
        <mxCell id="XMLvKD6NTCS2bfs8ey_3-20" value="Добавить трассу" style="rounded=0;whiteSpace=wrap;html=1;" parent="1" vertex="1">
          <mxGeometry x="270" y="370" width="120" height="60" as="geometry" />
        </mxCell>
        <mxCell id="XMLvKD6NTCS2bfs8ey_3-51" style="edgeStyle=orthogonalEdgeStyle;rounded=0;orthogonalLoop=1;jettySize=auto;html=1;" parent="1" source="XMLvKD6NTCS2bfs8ey_3-24" target="XMLvKD6NTCS2bfs8ey_3-50" edge="1">
          <mxGeometry relative="1" as="geometry" />
        </mxCell>
        <mxCell id="XMLvKD6NTCS2bfs8ey_3-24" value="Добавить летательный аппарат" style="rounded=0;whiteSpace=wrap;html=1;" parent="1" vertex="1">
          <mxGeometry x="270" y="520" width="120" height="60" as="geometry" />
        </mxCell>
        <mxCell id="XMLvKD6NTCS2bfs8ey_3-28" style="edgeStyle=orthogonalEdgeStyle;rounded=0;orthogonalLoop=1;jettySize=auto;html=1;" parent="1" source="XMLvKD6NTCS2bfs8ey_3-24" target="XMLvKD6NTCS2bfs8ey_3-24" edge="1">
          <mxGeometry relative="1" as="geometry" />
        </mxCell>
        <mxCell id="XMLvKD6NTCS2bfs8ey_3-29" value="Добавить актёров" style="rounded=1;whiteSpace=wrap;html=1;" parent="1" vertex="1">
          <mxGeometry x="270" y="240" width="120" height="60" as="geometry" />
        </mxCell>
        <mxCell id="XMLvKD6NTCS2bfs8ey_3-30" style="edgeStyle=orthogonalEdgeStyle;rounded=0;orthogonalLoop=1;jettySize=auto;html=1;entryX=0.5;entryY=0;entryDx=0;entryDy=0;" parent="1" source="XMLvKD6NTCS2bfs8ey_3-4" target="XMLvKD6NTCS2bfs8ey_3-29" edge="1">
          <mxGeometry relative="1" as="geometry">
            <mxPoint x="520" y="210" as="sourcePoint" />
            <mxPoint x="290" y="430" as="targetPoint" />
          </mxGeometry>
        </mxCell>
        <mxCell id="XMLvKD6NTCS2bfs8ey_3-35" style="edgeStyle=orthogonalEdgeStyle;rounded=0;orthogonalLoop=1;jettySize=auto;html=1;" parent="1" source="XMLvKD6NTCS2bfs8ey_3-31" target="XMLvKD6NTCS2bfs8ey_3-33" edge="1">
          <mxGeometry relative="1" as="geometry">
            <Array as="points">
              <mxPoint x="690" y="270" />
            </Array>
          </mxGeometry>
        </mxCell>
        <mxCell id="XMLvKD6NTCS2bfs8ey_3-36" style="edgeStyle=orthogonalEdgeStyle;rounded=0;orthogonalLoop=1;jettySize=auto;html=1;" parent="1" source="XMLvKD6NTCS2bfs8ey_3-31" target="XMLvKD6NTCS2bfs8ey_3-34" edge="1">
          <mxGeometry relative="1" as="geometry" />
        </mxCell>
        <mxCell id="XMLvKD6NTCS2bfs8ey_3-39" style="edgeStyle=orthogonalEdgeStyle;rounded=0;orthogonalLoop=1;jettySize=auto;html=1;" parent="1" source="XMLvKD6NTCS2bfs8ey_3-31" target="XMLvKD6NTCS2bfs8ey_3-38" edge="1">
          <mxGeometry relative="1" as="geometry">
            <Array as="points">
              <mxPoint x="899" y="270" />
            </Array>
          </mxGeometry>
        </mxCell>
        <mxCell id="XMLvKD6NTCS2bfs8ey_3-41" style="edgeStyle=orthogonalEdgeStyle;rounded=0;orthogonalLoop=1;jettySize=auto;html=1;" parent="1" source="XMLvKD6NTCS2bfs8ey_3-31" target="XMLvKD6NTCS2bfs8ey_3-40" edge="1">
          <mxGeometry relative="1" as="geometry" />
        </mxCell>
        <mxCell id="XMLvKD6NTCS2bfs8ey_3-43" style="edgeStyle=orthogonalEdgeStyle;rounded=0;orthogonalLoop=1;jettySize=auto;html=1;" parent="1" source="XMLvKD6NTCS2bfs8ey_3-31" target="XMLvKD6NTCS2bfs8ey_3-42" edge="1">
          <mxGeometry relative="1" as="geometry" />
        </mxCell>
        <mxCell id="XMLvKD6NTCS2bfs8ey_3-31" value="Редактировать актёров" style="rounded=1;whiteSpace=wrap;html=1;" parent="1" vertex="1">
          <mxGeometry x="740" y="240" width="120" height="60" as="geometry" />
        </mxCell>
        <mxCell id="XMLvKD6NTCS2bfs8ey_3-33" value="Удалить трассу" style="rounded=0;whiteSpace=wrap;html=1;" parent="1" vertex="1">
          <mxGeometry x="630" y="370" width="120" height="60" as="geometry" />
        </mxCell>
        <mxCell id="XMLvKD6NTCS2bfs8ey_3-34" value="Изменить лет. аппараты" style="rounded=0;whiteSpace=wrap;html=1;" parent="1" vertex="1">
          <mxGeometry x="980" y="370" width="120" height="60" as="geometry" />
        </mxCell>
        <mxCell id="XMLvKD6NTCS2bfs8ey_3-38" value="Изменить трассу" style="rounded=0;whiteSpace=wrap;html=1;" parent="1" vertex="1">
          <mxGeometry x="850" y="370" width="120" height="60" as="geometry" />
        </mxCell>
        <mxCell id="XMLvKD6NTCS2bfs8ey_3-40" value="Добавить лет. аппараты" style="rounded=0;whiteSpace=wrap;html=1;" parent="1" vertex="1">
          <mxGeometry x="1110" y="370" width="120" height="60" as="geometry" />
        </mxCell>
        <mxCell id="XMLvKD6NTCS2bfs8ey_3-42" value="Удалить лет. аппараты" style="rounded=0;whiteSpace=wrap;html=1;" parent="1" vertex="1">
          <mxGeometry x="500" y="370" width="120" height="60" as="geometry" />
        </mxCell>
        <mxCell id="XMLvKD6NTCS2bfs8ey_3-54" style="edgeStyle=orthogonalEdgeStyle;rounded=0;orthogonalLoop=1;jettySize=auto;html=1;" parent="1" source="XMLvKD6NTCS2bfs8ey_3-46" target="XMLvKD6NTCS2bfs8ey_3-20" edge="1">
          <mxGeometry relative="1" as="geometry" />
        </mxCell>
        <mxCell id="XMLvKD6NTCS2bfs8ey_3-46" value="&lt;h1&gt;Добавить трассу&lt;/h1&gt;&lt;p&gt;Установка опорных точек на коорд. плоскости и их редактирование:&lt;/p&gt;&lt;p&gt;Выбор эшелона высот, перемещение, удаление&lt;/p&gt;" style="text;html=1;strokeColor=none;fillColor=none;spacing=5;spacingTop=-20;whiteSpace=wrap;overflow=hidden;rounded=0;" parent="1" vertex="1">
          <mxGeometry x="10" y="220" width="190" height="270" as="geometry" />
        </mxCell>
        <mxCell id="XMLvKD6NTCS2bfs8ey_3-53" style="edgeStyle=orthogonalEdgeStyle;rounded=0;orthogonalLoop=1;jettySize=auto;html=1;" parent="1" source="XMLvKD6NTCS2bfs8ey_3-49" target="XMLvKD6NTCS2bfs8ey_3-24" edge="1">
          <mxGeometry relative="1" as="geometry">
            <Array as="points">
              <mxPoint x="105" y="550" />
            </Array>
          </mxGeometry>
        </mxCell>
        <mxCell id="XMLvKD6NTCS2bfs8ey_3-49" value="&lt;h1&gt;Летательный аппарат&lt;/h1&gt;&lt;p&gt;Выбор принадлежности. Выбор модели. Выбор численности&lt;/p&gt;" style="text;html=1;strokeColor=none;fillColor=none;spacing=5;spacingTop=-20;whiteSpace=wrap;overflow=hidden;rounded=0;" parent="1" vertex="1">
          <mxGeometry x="10" y="600" width="190" height="170" as="geometry" />
        </mxCell>
        <mxCell id="XMLvKD6NTCS2bfs8ey_3-50" value="Выбор построения" style="rounded=0;whiteSpace=wrap;html=1;" parent="1" vertex="1">
          <mxGeometry x="270" y="660" width="120" height="60" as="geometry" />
        </mxCell>
        <mxCell id="aEJHKp-Uwna1abQGy5DF-1" value="Воздушная обстановка" style="rounded=0;whiteSpace=wrap;html=1;" parent="1" vertex="1">
          <mxGeometry x="3834" y="198.86" width="120" height="60" as="geometry" />
        </mxCell>
        <mxCell id="aEJHKp-Uwna1abQGy5DF-2" value="Наземная обстановка" style="rounded=0;whiteSpace=wrap;html=1;" parent="1" vertex="1">
          <mxGeometry x="4804" y="218.86" width="120" height="60" as="geometry" />
        </mxCell>
        <mxCell id="aEJHKp-Uwna1abQGy5DF-3" style="edgeStyle=orthogonalEdgeStyle;rounded=0;orthogonalLoop=1;jettySize=auto;html=1;entryX=0.5;entryY=0;entryDx=0;entryDy=0;exitX=0;exitY=0.5;exitDx=0;exitDy=0;" parent="1" source="XMLvKD6NTCS2bfs8ey_3-11" target="aEJHKp-Uwna1abQGy5DF-1" edge="1">
          <mxGeometry relative="1" as="geometry">
            <mxPoint x="4274" y="178.86" as="sourcePoint" />
          </mxGeometry>
        </mxCell>
        <mxCell id="aEJHKp-Uwna1abQGy5DF-4" style="edgeStyle=orthogonalEdgeStyle;rounded=0;orthogonalLoop=1;jettySize=auto;html=1;entryX=0.5;entryY=0;entryDx=0;entryDy=0;exitX=1;exitY=0.5;exitDx=0;exitDy=0;" parent="1" source="XMLvKD6NTCS2bfs8ey_3-11" target="aEJHKp-Uwna1abQGy5DF-2" edge="1">
          <mxGeometry relative="1" as="geometry">
            <mxPoint x="4434" y="178.86" as="sourcePoint" />
          </mxGeometry>
        </mxCell>
      </root>
    </mxGraphModel>
  </diagram>
  <diagram id="baix6e9JjWYOb5dpNnqX" name="Use-case">
    
    <mxGraphModel dx="1987" dy="829" grid="1" gridSize="10" guides="1" tooltips="1" connect="1" arrows="1" fold="1" page="1" pageScale="1" pageWidth="10000" pageHeight="10000" math="0" shadow="0">
      
      <root>
        
        <mxCell id="xo3xtADz81phBx3IPZYS-0" />
        
        <mxCell id="xo3xtADz81phBx3IPZYS-1" parent="xo3xtADz81phBx3IPZYS-0" />
        
        <mxCell id="gluKKisve3d-hNC8ZlLD-6" style="edgeStyle=none;rounded=0;orthogonalLoop=1;jettySize=auto;html=1;exitX=1;exitY=0.3333333333333333;exitDx=0;exitDy=0;exitPerimeter=0;startArrow=none;startFill=0;endArrow=classic;endFill=1;strokeColor=#000000;entryX=0;entryY=0.5;entryDx=0;entryDy=0;" parent="xo3xtADz81phBx3IPZYS-1" source="xo3xtADz81phBx3IPZYS-2" target="gluKKisve3d-hNC8ZlLD-5" edge="1">
          
          <mxGeometry relative="1" as="geometry" />
          
        </mxCell>
        
        <mxCell id="xo3xtADz81phBx3IPZYS-2" value="Студент" style="shape=umlActor;verticalLabelPosition=bottom;labelBackgroundColor=#ffffff;verticalAlign=top;html=1;outlineConnect=0;" parent="xo3xtADz81phBx3IPZYS-1" vertex="1">
          
          <mxGeometry x="98" y="270" width="30" height="60" as="geometry" />
          
        </mxCell>
        
        <mxCell id="LmRen1sASm8LjArkquaT-2" style="rounded=0;orthogonalLoop=1;jettySize=auto;html=1;" parent="xo3xtADz81phBx3IPZYS-1" target="LmRen1sASm8LjArkquaT-0" edge="1">
          
          <mxGeometry relative="1" as="geometry">
            
            <mxPoint x="390" y="670" as="sourcePoint" />
            
          </mxGeometry>
          
        </mxCell>
        
        <mxCell id="LmRen1sASm8LjArkquaT-3" style="edgeStyle=none;rounded=0;orthogonalLoop=1;jettySize=auto;html=1;exitX=1;exitY=0.5;exitDx=0;exitDy=0;" parent="xo3xtADz81phBx3IPZYS-1" source="gluKKisve3d-hNC8ZlLD-8" target="LmRen1sASm8LjArkquaT-1" edge="1">
          
          <mxGeometry relative="1" as="geometry">
            
            <mxPoint x="80" y="480" as="sourcePoint" />
            
          </mxGeometry>
          
        </mxCell>
        
        <mxCell id="gluKKisve3d-hNC8ZlLD-1" style="edgeStyle=none;rounded=0;orthogonalLoop=1;jettySize=auto;html=1;exitX=1;exitY=0.5;exitDx=0;exitDy=0;entryX=0;entryY=1;entryDx=0;entryDy=0;" parent="xo3xtADz81phBx3IPZYS-1" source="gluKKisve3d-hNC8ZlLD-8" target="gluKKisve3d-hNC8ZlLD-0" edge="1">
          
          <mxGeometry relative="1" as="geometry">
            
            <mxPoint x="80" y="480" as="sourcePoint" />
            
          </mxGeometry>
          
        </mxCell>
        
        <mxCell id="gluKKisve3d-hNC8ZlLD-4" style="edgeStyle=none;rounded=0;orthogonalLoop=1;jettySize=auto;html=1;exitX=1;exitY=0.5;exitDx=0;exitDy=0;startArrow=none;startFill=0;endArrow=classic;endFill=1;strokeColor=#000000;entryX=0;entryY=0.5;entryDx=0;entryDy=0;" parent="xo3xtADz81phBx3IPZYS-1" source="gluKKisve3d-hNC8ZlLD-8" target="gluKKisve3d-hNC8ZlLD-19" edge="1">
          
          <mxGeometry relative="1" as="geometry">
            
            <mxPoint x="80" y="480" as="sourcePoint" />
            
            <mxPoint x="460" y="920" as="targetPoint" />
            
          </mxGeometry>
          
        </mxCell>
        
        <mxCell id="LmRen1sASm8LjArkquaT-0" value="Создать сценарий" style="ellipse;whiteSpace=wrap;html=1;" parent="xo3xtADz81phBx3IPZYS-1" vertex="1">
          
          <mxGeometry x="550" y="530" width="120" height="80" as="geometry" />
          
        </mxCell>
        
        <mxCell id="LmRen1sASm8LjArkquaT-1" value="Редактировать сценарии" style="ellipse;whiteSpace=wrap;html=1;" parent="xo3xtADz81phBx3IPZYS-1" vertex="1">
          
          <mxGeometry x="550" y="629" width="120" height="80" as="geometry" />
          
        </mxCell>
        
        <mxCell id="LmRen1sASm8LjArkquaT-4" value="Запустить сценарий" style="ellipse;whiteSpace=wrap;html=1;" parent="xo3xtADz81phBx3IPZYS-1" vertex="1">
          
          <mxGeometry x="550" y="210" width="120" height="70" as="geometry" />
          
        </mxCell>
        
        <mxCell id="LmRen1sASm8LjArkquaT-8" value="Просмотреть журналы выполненных сценариев" style="ellipse;whiteSpace=wrap;html=1;" parent="xo3xtADz81phBx3IPZYS-1" vertex="1">
          
          <mxGeometry x="550" y="100" width="120" height="80" as="geometry" />
          
        </mxCell>
        
        <mxCell id="gluKKisve3d-hNC8ZlLD-0" value="Наблюдать" style="ellipse;whiteSpace=wrap;html=1;" parent="xo3xtADz81phBx3IPZYS-1" vertex="1">
          
          <mxGeometry x="550" y="370" width="120" height="80" as="geometry" />
          
        </mxCell>
        
        <mxCell id="gluKKisve3d-hNC8ZlLD-10" style="edgeStyle=none;rounded=0;orthogonalLoop=1;jettySize=auto;html=1;exitX=1;exitY=0.5;exitDx=0;exitDy=0;startArrow=none;startFill=0;endArrow=classic;endFill=1;strokeColor=#000000;" parent="xo3xtADz81phBx3IPZYS-1" source="gluKKisve3d-hNC8ZlLD-5" target="LmRen1sASm8LjArkquaT-4" edge="1">
          
          <mxGeometry relative="1" as="geometry" />
          
        </mxCell>
        
        <mxCell id="gluKKisve3d-hNC8ZlLD-11" style="edgeStyle=none;rounded=0;orthogonalLoop=1;jettySize=auto;html=1;exitX=1;exitY=0.5;exitDx=0;exitDy=0;startArrow=none;startFill=0;endArrow=classic;endFill=1;strokeColor=#000000;" parent="xo3xtADz81phBx3IPZYS-1" source="gluKKisve3d-hNC8ZlLD-5" target="LmRen1sASm8LjArkquaT-8" edge="1">
          
          <mxGeometry relative="1" as="geometry" />
          
        </mxCell>
        
        <mxCell id="gluKKisve3d-hNC8ZlLD-5" value="Войти в систему" style="ellipse;whiteSpace=wrap;html=1;" parent="xo3xtADz81phBx3IPZYS-1" vertex="1">
          
          <mxGeometry x="300" y="180" width="120" height="80" as="geometry" />
          
        </mxCell>
        
        <mxCell id="gluKKisve3d-hNC8ZlLD-8" value="Войти в систему, но покруче" style="ellipse;whiteSpace=wrap;html=1;" parent="xo3xtADz81phBx3IPZYS-1" vertex="1">
          
          <mxGeometry x="270" y="630" width="120" height="80" as="geometry" />
          
        </mxCell>
        
        <mxCell id="gluKKisve3d-hNC8ZlLD-17" style="edgeStyle=none;rounded=0;orthogonalLoop=1;jettySize=auto;html=1;startArrow=none;startFill=0;endArrow=classic;endFill=1;strokeColor=#000000;entryX=0;entryY=0.5;entryDx=0;entryDy=0;" parent="xo3xtADz81phBx3IPZYS-1" source="gluKKisve3d-hNC8ZlLD-16" target="gluKKisve3d-hNC8ZlLD-8" edge="1">
          
          <mxGeometry relative="1" as="geometry">
            
            <mxPoint x="240" y="640" as="targetPoint" />
            
          </mxGeometry>
          
        </mxCell>
        
        <mxCell id="gluKKisve3d-hNC8ZlLD-18" style="edgeStyle=none;rounded=0;orthogonalLoop=1;jettySize=auto;html=1;startArrow=none;startFill=0;endArrow=block;endFill=0;strokeColor=#000000;" parent="xo3xtADz81phBx3IPZYS-1" source="gluKKisve3d-hNC8ZlLD-16" target="xo3xtADz81phBx3IPZYS-2" edge="1">
          
          <mxGeometry relative="1" as="geometry" />
          
        </mxCell>
        
        <mxCell id="gluKKisve3d-hNC8ZlLD-16" value="Преподаватель" style="shape=umlActor;verticalLabelPosition=bottom;labelBackgroundColor=#ffffff;verticalAlign=top;html=1;outlineConnect=0;" parent="xo3xtADz81phBx3IPZYS-1" vertex="1">
          
          <mxGeometry x="100" y="480" width="30" height="60" as="geometry" />
          
        </mxCell>
        
        <mxCell id="gluKKisve3d-hNC8ZlLD-29" style="edgeStyle=none;rounded=0;orthogonalLoop=1;jettySize=auto;html=1;entryX=0;entryY=0.5;entryDx=0;entryDy=0;startArrow=none;startFill=0;endArrow=classic;endFill=1;strokeColor=#000000;" parent="xo3xtADz81phBx3IPZYS-1" source="gluKKisve3d-hNC8ZlLD-19" target="gluKKisve3d-hNC8ZlLD-21" edge="1">
          
          <mxGeometry relative="1" as="geometry" />
          
        </mxCell>
        
        <mxCell id="gluKKisve3d-hNC8ZlLD-30" style="edgeStyle=none;rounded=0;orthogonalLoop=1;jettySize=auto;html=1;entryX=0;entryY=0;entryDx=0;entryDy=0;startArrow=none;startFill=0;endArrow=classic;endFill=1;strokeColor=#000000;exitX=1;exitY=0.5;exitDx=0;exitDy=0;" parent="xo3xtADz81phBx3IPZYS-1" source="gluKKisve3d-hNC8ZlLD-19" target="gluKKisve3d-hNC8ZlLD-22" edge="1">
          
          <mxGeometry relative="1" as="geometry" />
          
        </mxCell>
        
        <mxCell id="gluKKisve3d-hNC8ZlLD-19" value="Контроль учебной деятельности&amp;nbsp;" style="ellipse;whiteSpace=wrap;html=1;" parent="xo3xtADz81phBx3IPZYS-1" vertex="1">
          
          <mxGeometry x="550" y="740" width="120" height="80" as="geometry" />
          
        </mxCell>
        
        <mxCell id="gluKKisve3d-hNC8ZlLD-21" value="Добавить группу" style="ellipse;whiteSpace=wrap;html=1;" parent="xo3xtADz81phBx3IPZYS-1" vertex="1">
          
          <mxGeometry x="740" y="740" width="120" height="80" as="geometry" />
          
        </mxCell>
        
        <mxCell id="gluKKisve3d-hNC8ZlLD-31" style="edgeStyle=none;rounded=0;orthogonalLoop=1;jettySize=auto;html=1;entryX=0;entryY=0.5;entryDx=0;entryDy=0;startArrow=none;startFill=0;endArrow=classic;endFill=1;strokeColor=#000000;" parent="xo3xtADz81phBx3IPZYS-1" source="gluKKisve3d-hNC8ZlLD-22" target="gluKKisve3d-hNC8ZlLD-25" edge="1">
          
          <mxGeometry relative="1" as="geometry" />
          
        </mxCell>
        
        <mxCell id="gluKKisve3d-hNC8ZlLD-32" style="edgeStyle=none;rounded=0;orthogonalLoop=1;jettySize=auto;html=1;startArrow=none;startFill=0;endArrow=classic;endFill=1;strokeColor=#000000;exitX=1;exitY=0.5;exitDx=0;exitDy=0;" parent="xo3xtADz81phBx3IPZYS-1" source="gluKKisve3d-hNC8ZlLD-22" target="gluKKisve3d-hNC8ZlLD-27" edge="1">
          
          <mxGeometry relative="1" as="geometry" />
          
        </mxCell>
        
        <mxCell id="gluKKisve3d-hNC8ZlLD-22" value="Выбрать существующую группу" style="ellipse;whiteSpace=wrap;html=1;" parent="xo3xtADz81phBx3IPZYS-1" vertex="1">
          
          <mxGeometry x="740" y="850" width="120" height="80" as="geometry" />
          
        </mxCell>
        
        <mxCell id="gluKKisve3d-hNC8ZlLD-25" value="Поставить задачу" style="ellipse;whiteSpace=wrap;html=1;" parent="xo3xtADz81phBx3IPZYS-1" vertex="1">
          
          <mxGeometry x="910" y="851" width="120" height="80" as="geometry" />
          
        </mxCell>
        
        <mxCell id="gluKKisve3d-hNC8ZlLD-27" value="Посмотреть статистику" style="ellipse;whiteSpace=wrap;html=1;" parent="xo3xtADz81phBx3IPZYS-1" vertex="1">
          
          <mxGeometry x="910" y="980" width="120" height="80" as="geometry" />
          
        </mxCell>
        
        <mxCell id="gluKKisve3d-hNC8ZlLD-28" style="edgeStyle=none;rounded=0;orthogonalLoop=1;jettySize=auto;html=1;exitX=1;exitY=0.5;exitDx=0;exitDy=0;startArrow=none;startFill=0;endArrow=classic;endFill=1;strokeColor=#000000;entryX=0;entryY=0;entryDx=0;entryDy=0;" parent="xo3xtADz81phBx3IPZYS-1" source="gluKKisve3d-hNC8ZlLD-5" target="gluKKisve3d-hNC8ZlLD-0" edge="1">
          
          <mxGeometry relative="1" as="geometry">
            
            <mxPoint x="430" y="260" as="sourcePoint" />
            
            <mxPoint x="564.4074517186714" y="291.8333438281063" as="targetPoint" />
            
          </mxGeometry>
          
        </mxCell>
        
        <mxCell id="gluKKisve3d-hNC8ZlLD-33" value="Посмотреть результаты журналирования" style="ellipse;whiteSpace=wrap;html=1;" parent="xo3xtADz81phBx3IPZYS-1" vertex="1">
          
          <mxGeometry x="910" y="1120" width="120" height="80" as="geometry" />
          
        </mxCell>
        
        <mxCell id="gluKKisve3d-hNC8ZlLD-34" style="edgeStyle=none;rounded=0;orthogonalLoop=1;jettySize=auto;html=1;startArrow=none;startFill=0;endArrow=classic;endFill=1;strokeColor=#000000;entryX=0;entryY=0;entryDx=0;entryDy=0;exitX=1;exitY=0.5;exitDx=0;exitDy=0;" parent="xo3xtADz81phBx3IPZYS-1" source="gluKKisve3d-hNC8ZlLD-22" target="gluKKisve3d-hNC8ZlLD-33" edge="1">
          
          <mxGeometry relative="1" as="geometry">
            
            <mxPoint x="849.5210366942933" y="930.0967894825774" as="sourcePoint" />
            
            <mxPoint x="940.5718879740457" y="999.849090803682" as="targetPoint" />
            
          </mxGeometry>
          
        </mxCell>
        
      </root>
      
    </mxGraphModel>
    
  </diagram>
  <diagram id="F7_GL3VaxNbvsSMNM0qm" name="architecture">
    <mxGraphModel dx="1038" dy="580" grid="1" gridSize="10" guides="1" tooltips="1" connect="1" arrows="1" fold="1" page="1" pageScale="1" pageWidth="827" pageHeight="1169" math="0" shadow="0">
      <root>
        <mxCell id="JRDUnAhR2fNw6kQFVOVW-0" />
        <mxCell id="JRDUnAhR2fNw6kQFVOVW-1" parent="JRDUnAhR2fNw6kQFVOVW-0" />
        <mxCell id="JRDUnAhR2fNw6kQFVOVW-2" value="" style="rounded=1;whiteSpace=wrap;html=1;" parent="JRDUnAhR2fNw6kQFVOVW-1" vertex="1">
          <mxGeometry x="80" y="110" width="700" height="130" as="geometry" />
        </mxCell>
        <mxCell id="JRDUnAhR2fNw6kQFVOVW-3" value="Уровень представления" style="text;html=1;strokeColor=none;fillColor=none;align=center;verticalAlign=middle;whiteSpace=wrap;rounded=0;" parent="JRDUnAhR2fNw6kQFVOVW-1" vertex="1">
          <mxGeometry x="110" y="140" width="90" height="20" as="geometry" />
        </mxCell>
        <mxCell id="JRDUnAhR2fNw6kQFVOVW-4" value="" style="rounded=1;whiteSpace=wrap;html=1;" parent="JRDUnAhR2fNw6kQFVOVW-1" vertex="1">
          <mxGeometry x="80" y="696" width="700" height="174" as="geometry" />
        </mxCell>
        <mxCell id="JRDUnAhR2fNw6kQFVOVW-5" value="Уровень логики" style="text;html=1;strokeColor=none;fillColor=none;align=center;verticalAlign=middle;whiteSpace=wrap;rounded=0;" parent="JRDUnAhR2fNw6kQFVOVW-1" vertex="1">
          <mxGeometry x="95" y="710" width="90" height="20" as="geometry" />
        </mxCell>
        <mxCell id="JRDUnAhR2fNw6kQFVOVW-6" value="" style="rounded=1;whiteSpace=wrap;html=1;" parent="JRDUnAhR2fNw6kQFVOVW-1" vertex="1">
          <mxGeometry x="80" y="932" width="700" height="138" as="geometry" />
        </mxCell>
        <mxCell id="JRDUnAhR2fNw6kQFVOVW-7" value="Уровень данных" style="text;html=1;strokeColor=none;fillColor=none;align=center;verticalAlign=middle;whiteSpace=wrap;rounded=0;" parent="JRDUnAhR2fNw6kQFVOVW-1" vertex="1">
          <mxGeometry x="95" y="941.62" width="100" height="20" as="geometry" />
        </mxCell>
        <mxCell id="JRDUnAhR2fNw6kQFVOVW-8" value="Обработчики событий, требующие взаимодействия с другими слоями" style="rounded=0;whiteSpace=wrap;html=1;" parent="JRDUnAhR2fNw6kQFVOVW-1" vertex="1">
          <mxGeometry x="230" y="130" width="210" height="60" as="geometry" />
        </mxCell>
        <mxCell id="JRDUnAhR2fNw6kQFVOVW-9" value="Обработчики событий, не требующие взаимодействия с другими слоями" style="rounded=0;whiteSpace=wrap;html=1;" parent="JRDUnAhR2fNw6kQFVOVW-1" vertex="1">
          <mxGeometry x="500" y="130" width="220" height="60" as="geometry" />
        </mxCell>
        <mxCell id="JRDUnAhR2fNw6kQFVOVW-11" value="" style="shape=flexArrow;endArrow=classic;startArrow=classic;html=1;endWidth=19.723183391003463;endSize=11.976470588235294;width=246.89655172413794;startSize=17.50344827586207;" parent="JRDUnAhR2fNw6kQFVOVW-1" source="JRDUnAhR2fNw6kQFVOVW-8" edge="1">
          <mxGeometry width="50" height="50" relative="1" as="geometry">
            <mxPoint x="130" y="840" as="sourcePoint" />
            <mxPoint x="335" y="730" as="targetPoint" />
            <Array as="points">
              <mxPoint x="335" y="360" />
            </Array>
          </mxGeometry>
        </mxCell>
        <mxCell id="JRDUnAhR2fNw6kQFVOVW-12" value="Контроль структур данных юнитов(воздушные, наземные объекты, карта)" style="rounded=0;whiteSpace=wrap;html=1;" parent="JRDUnAhR2fNw6kQFVOVW-1" vertex="1">
          <mxGeometry x="140" y="756" width="150" height="60" as="geometry" />
        </mxCell>
        <mxCell id="JRDUnAhR2fNw6kQFVOVW-22" value="Интерфейсы:&lt;br&gt;&lt;br&gt;&lt;br&gt;- IAirUnit&lt;br&gt;(Взаимодействие со структурами объектов летательных аппаратов)&lt;br&gt;&lt;br&gt;&lt;br&gt;-IGroundUnit&lt;br&gt;(Взаимодействие&amp;nbsp;со структурами объектов наземной обстановки)&lt;br&gt;&lt;br&gt;&lt;br&gt;- IMap&lt;br&gt;(Взаимодействие&amp;nbsp;со структурами карты)&lt;br&gt;&lt;br&gt;&lt;br&gt;- IScenario&lt;br&gt;(Взаимодействие&amp;nbsp;со структурами сценариев)&lt;br&gt;&lt;br&gt;&lt;br&gt;-ISettings&lt;br&gt;(Взаимодействие&amp;nbsp;со структурами описательной информации(отображаемой в вызываемых окнах))&lt;br&gt;&lt;br&gt;&lt;br&gt;-IEducation&lt;br&gt;(Взаимодействие&amp;nbsp;со структурами контроля учебной деятельности)" style="text;html=1;strokeColor=none;fillColor=none;align=center;verticalAlign=middle;whiteSpace=wrap;rounded=0;" parent="JRDUnAhR2fNw6kQFVOVW-1" vertex="1">
          <mxGeometry x="220" y="240" width="230" height="450" as="geometry" />
        </mxCell>
        <mxCell id="z1R9OSvyH7Kqvteqjw2O-8" value="Журналирование" style="rounded=0;whiteSpace=wrap;html=1;" parent="JRDUnAhR2fNw6kQFVOVW-1" vertex="1">
          <mxGeometry x="310" y="756" width="100" height="60" as="geometry" />
        </mxCell>
        <mxCell id="WKlhvTXUq6VagxtlS_Ek-0" value="Авторизация" style="rounded=0;whiteSpace=wrap;html=1;" parent="JRDUnAhR2fNw6kQFVOVW-1" vertex="1">
          <mxGeometry x="565" y="756" width="90" height="60" as="geometry" />
        </mxCell>
        <mxCell id="WKlhvTXUq6VagxtlS_Ek-1" value="Контроль учебной деятельности" style="rounded=0;whiteSpace=wrap;html=1;" parent="JRDUnAhR2fNw6kQFVOVW-1" vertex="1">
          <mxGeometry x="430" y="756" width="120" height="60" as="geometry" />
        </mxCell>
        <mxCell id="yV_PDrxA425aN5boLF13-0" value="" style="shape=flexArrow;endArrow=classic;startArrow=classic;html=1;width=94.48275862068965;startSize=5.675862068965518;endSize=5.675862068965518;" parent="JRDUnAhR2fNw6kQFVOVW-1" edge="1">
          <mxGeometry width="50" height="50" relative="1" as="geometry">
            <mxPoint x="410" y="952" as="sourcePoint" />
            <mxPoint x="410" y="850" as="targetPoint" />
          </mxGeometry>
        </mxCell>
        <mxCell id="yV_PDrxA425aN5boLF13-4" value="IFileManager" style="text;html=1;strokeColor=none;fillColor=none;align=center;verticalAlign=middle;whiteSpace=wrap;rounded=0;" parent="JRDUnAhR2fNw6kQFVOVW-1" vertex="1">
          <mxGeometry x="363.38" y="874.62" width="100" height="50" as="geometry" />
        </mxCell>
        <mxCell id="yV_PDrxA425aN5boLF13-17" value="Maps" style="shape=note;whiteSpace=wrap;html=1;backgroundOutline=1;darkOpacity=0.05;" parent="JRDUnAhR2fNw6kQFVOVW-1" vertex="1">
          <mxGeometry x="192.5" y="960" width="80" height="80" as="geometry" />
        </mxCell>
        <mxCell id="yV_PDrxA425aN5boLF13-19" value="&lt;span style=&quot;white-space: normal&quot;&gt;GroundUnits&lt;/span&gt;" style="shape=note;whiteSpace=wrap;html=1;backgroundOutline=1;darkOpacity=0.05;" parent="JRDUnAhR2fNw6kQFVOVW-1" vertex="1">
          <mxGeometry x="385.5" y="960" width="80" height="80" as="geometry" />
        </mxCell>
        <mxCell id="yV_PDrxA425aN5boLF13-20" value="Scenarios" style="shape=note;whiteSpace=wrap;html=1;backgroundOutline=1;darkOpacity=0.05;" parent="JRDUnAhR2fNw6kQFVOVW-1" vertex="1">
          <mxGeometry x="485.5" y="960" width="80" height="80" as="geometry" />
        </mxCell>
        <mxCell id="yV_PDrxA425aN5boLF13-21" value="&lt;span style=&quot;white-space: normal&quot;&gt;Settings&lt;/span&gt;" style="shape=note;whiteSpace=wrap;html=1;backgroundOutline=1;darkOpacity=0.05;" parent="JRDUnAhR2fNw6kQFVOVW-1" vertex="1">
          <mxGeometry x="587.5" y="960" width="80" height="80" as="geometry" />
        </mxCell>
        <mxCell id="yV_PDrxA425aN5boLF13-22" value="&lt;span style=&quot;white-space: normal&quot;&gt;AirUnits&lt;/span&gt;" style="shape=note;whiteSpace=wrap;html=1;backgroundOutline=1;darkOpacity=0.05;" parent="JRDUnAhR2fNw6kQFVOVW-1" vertex="1">
          <mxGeometry x="287.5" y="960" width="80" height="80" as="geometry" />
        </mxCell>
      </root>
    </mxGraphModel>
  </diagram>
  <diagram id="WPVX4LSQCabjop_LZLR9" name="DataStructures">
    <mxGraphModel dx="1038" dy="580" grid="1" gridSize="10" guides="1" tooltips="1" connect="1" arrows="1" fold="1" page="1" pageScale="1" pageWidth="827" pageHeight="1169" math="0" shadow="0">
      <root>
        <mxCell id="xevxtzLHdb0Cjb-lHdhE-0" />
        <mxCell id="xevxtzLHdb0Cjb-lHdhE-1" parent="xevxtzLHdb0Cjb-lHdhE-0" />
        <mxCell id="WsR9-tQ_toaVHk2lSloU-2" value="[serializable]TerrainMap" style="swimlane;fontStyle=1;align=center;verticalAlign=top;childLayout=stackLayout;horizontal=1;startSize=26;horizontalStack=0;resizeParent=1;resizeParentMax=0;resizeLast=0;collapsible=1;marginBottom=0;" parent="xevxtzLHdb0Cjb-lHdhE-1" vertex="1">
          <mxGeometry x="30" y="30" width="190" height="160" as="geometry" />
        </mxCell>
        <mxCell id="WsR9-tQ_toaVHk2lSloU-3" value="- filename: string&#xa;- picture: Image &#xa;+drew_object: list&#xa;+show_drew: bool" style="text;strokeColor=none;fillColor=none;align=left;verticalAlign=top;spacingLeft=4;spacingRight=4;overflow=hidden;rotatable=0;points=[[0,0.5],[1,0.5]];portConstraint=eastwest;" parent="WsR9-tQ_toaVHk2lSloU-2" vertex="1">
          <mxGeometry y="26" width="190" height="64" as="geometry" />
        </mxCell>
        <mxCell id="WsR9-tQ_toaVHk2lSloU-4" value="" style="line;strokeWidth=1;fillColor=none;align=left;verticalAlign=middle;spacingTop=-1;spacingLeft=3;spacingRight=3;rotatable=0;labelPosition=right;points=[];portConstraint=eastwest;" parent="WsR9-tQ_toaVHk2lSloU-2" vertex="1">
          <mxGeometry y="90" width="190" height="8" as="geometry" />
        </mxCell>
        <mxCell id="WsR9-tQ_toaVHk2lSloU-5" value="+ show(bool show_drew): void&#xa;+ save(): bool&#xa;+ getFilename(): string" style="text;strokeColor=none;fillColor=none;align=left;verticalAlign=top;spacingLeft=4;spacingRight=4;overflow=hidden;rotatable=0;points=[[0,0.5],[1,0.5]];portConstraint=eastwest;" parent="WsR9-tQ_toaVHk2lSloU-2" vertex="1">
          <mxGeometry y="98" width="190" height="62" as="geometry" />
        </mxCell>
        <mxCell id="GBKaKPMio_im-7j3qKZX-0" value="[serializable]Unit" style="swimlane;fontStyle=1;align=center;verticalAlign=top;childLayout=stackLayout;horizontal=1;startSize=26;horizontalStack=0;resizeParent=1;resizeParentMax=0;resizeLast=0;collapsible=1;marginBottom=0;" parent="xevxtzLHdb0Cjb-lHdhE-1" vertex="1">
          <mxGeometry x="280" y="10" width="160" height="190" as="geometry" />
        </mxCell>
        <mxCell id="GBKaKPMio_im-7j3qKZX-1" value="+ coordinates: Point&#xa;- maxSpeed: float&#xa;- cruisngSpeed: float&#xa;- model: string&#xa;- marker: Image" style="text;strokeColor=none;fillColor=none;align=left;verticalAlign=top;spacingLeft=4;spacingRight=4;overflow=hidden;rotatable=0;points=[[0,0.5],[1,0.5]];portConstraint=eastwest;" parent="GBKaKPMio_im-7j3qKZX-0" vertex="1">
          <mxGeometry y="26" width="160" height="74" as="geometry" />
        </mxCell>
        <mxCell id="6gap1rFwS0zSSk-J9DPm-0" value="" style="line;strokeWidth=1;fillColor=none;align=left;verticalAlign=middle;spacingTop=-1;spacingLeft=3;spacingRight=3;rotatable=0;labelPosition=right;points=[];portConstraint=eastwest;" parent="GBKaKPMio_im-7j3qKZX-0" vertex="1">
          <mxGeometry y="100" width="160" height="8" as="geometry" />
        </mxCell>
        <mxCell id="GBKaKPMio_im-7j3qKZX-3" value="+ getMaxSpeed(): float&#xa;+ getCruisingSpeed(): float&#xa;+ getLabel(): string&#xa;+ getMarker(): Image" style="text;strokeColor=none;fillColor=none;align=left;verticalAlign=top;spacingLeft=4;spacingRight=4;overflow=hidden;rotatable=0;points=[[0,0.5],[1,0.5]];portConstraint=eastwest;" parent="GBKaKPMio_im-7j3qKZX-0" vertex="1">
          <mxGeometry y="108" width="160" height="82" as="geometry" />
        </mxCell>
        <mxCell id="9yn_4jRRa91daBQ7kdsd-0" value="[serializible]AirUnit" style="swimlane;fontStyle=1;align=center;verticalAlign=top;childLayout=stackLayout;horizontal=1;startSize=26;horizontalStack=0;resizeParent=1;resizeParentMax=0;resizeLast=0;collapsible=1;marginBottom=0;" parent="xevxtzLHdb0Cjb-lHdhE-1" vertex="1">
          <mxGeometry x="172" y="238" width="160" height="170" as="geometry" />
        </mxCell>
        <mxCell id="9yn_4jRRa91daBQ7kdsd-1" value="- type: enum&#xa;- floor: int&#xa;- route: Trace&#xa;- isEnemy: bool&#xa;- count: int&#xa;- height: float&#xa;" style="text;strokeColor=none;fillColor=none;align=left;verticalAlign=top;spacingLeft=4;spacingRight=4;overflow=hidden;rotatable=0;points=[[0,0.5],[1,0.5]];portConstraint=eastwest;" parent="9yn_4jRRa91daBQ7kdsd-0" vertex="1">
          <mxGeometry y="26" width="160" height="94" as="geometry" />
        </mxCell>
        <mxCell id="9yn_4jRRa91daBQ7kdsd-2" value="" style="line;strokeWidth=1;fillColor=none;align=left;verticalAlign=middle;spacingTop=-1;spacingLeft=3;spacingRight=3;rotatable=0;labelPosition=right;points=[];portConstraint=eastwest;" parent="9yn_4jRRa91daBQ7kdsd-0" vertex="1">
          <mxGeometry y="120" width="160" height="8" as="geometry" />
        </mxCell>
        <mxCell id="9yn_4jRRa91daBQ7kdsd-3" value="+ disappear(): void&#xa;+ move(): void" style="text;strokeColor=none;fillColor=none;align=left;verticalAlign=top;spacingLeft=4;spacingRight=4;overflow=hidden;rotatable=0;points=[[0,0.5],[1,0.5]];portConstraint=eastwest;" parent="9yn_4jRRa91daBQ7kdsd-0" vertex="1">
          <mxGeometry y="128" width="160" height="42" as="geometry" />
        </mxCell>
        <mxCell id="9yn_4jRRa91daBQ7kdsd-4" value="[serializible]GroundUnit" style="swimlane;fontStyle=1;align=center;verticalAlign=top;childLayout=stackLayout;horizontal=1;startSize=26;horizontalStack=0;resizeParent=1;resizeParentMax=0;resizeLast=0;collapsible=1;marginBottom=0;" parent="xevxtzLHdb0Cjb-lHdhE-1" vertex="1">
          <mxGeometry x="380" y="238" width="220" height="114" as="geometry" />
        </mxCell>
        <mxCell id="9yn_4jRRa91daBQ7kdsd-5" value="- type: enum&#xa;- gunit_id: int" style="text;strokeColor=none;fillColor=none;align=left;verticalAlign=top;spacingLeft=4;spacingRight=4;overflow=hidden;rotatable=0;points=[[0,0.5],[1,0.5]];portConstraint=eastwest;" parent="9yn_4jRRa91daBQ7kdsd-4" vertex="1">
          <mxGeometry y="26" width="220" height="54" as="geometry" />
        </mxCell>
        <mxCell id="9yn_4jRRa91daBQ7kdsd-6" value="" style="line;strokeWidth=1;fillColor=none;align=left;verticalAlign=middle;spacingTop=-1;spacingLeft=3;spacingRight=3;rotatable=0;labelPosition=right;points=[];portConstraint=eastwest;" parent="9yn_4jRRa91daBQ7kdsd-4" vertex="1">
          <mxGeometry y="80" width="220" height="8" as="geometry" />
        </mxCell>
        <mxCell id="9yn_4jRRa91daBQ7kdsd-7" value="+ method(type): type" style="text;strokeColor=none;fillColor=none;align=left;verticalAlign=top;spacingLeft=4;spacingRight=4;overflow=hidden;rotatable=0;points=[[0,0.5],[1,0.5]];portConstraint=eastwest;" parent="9yn_4jRRa91daBQ7kdsd-4" vertex="1">
          <mxGeometry y="88" width="220" height="26" as="geometry" />
        </mxCell>
        <mxCell id="9yn_4jRRa91daBQ7kdsd-8" value="" style="endArrow=classic;html=1;exitX=0.944;exitY=0.005;exitDx=0;exitDy=0;exitPerimeter=0;entryX=0.262;entryY=0.999;entryDx=0;entryDy=0;entryPerimeter=0;" parent="xevxtzLHdb0Cjb-lHdhE-1" source="9yn_4jRRa91daBQ7kdsd-0" target="GBKaKPMio_im-7j3qKZX-3" edge="1">
          <mxGeometry width="50" height="50" relative="1" as="geometry">
            <mxPoint x="322" y="308" as="sourcePoint" />
            <mxPoint x="323" y="200" as="targetPoint" />
          </mxGeometry>
        </mxCell>
        <mxCell id="9yn_4jRRa91daBQ7kdsd-9" value="" style="endArrow=classic;html=1;exitX=0.75;exitY=0;exitDx=0;exitDy=0;entryX=0.875;entryY=1;entryDx=0;entryDy=0;entryPerimeter=0;" parent="xevxtzLHdb0Cjb-lHdhE-1" target="GBKaKPMio_im-7j3qKZX-3" edge="1">
          <mxGeometry width="50" height="50" relative="1" as="geometry">
            <mxPoint x="420" y="238" as="sourcePoint" />
            <mxPoint x="420" y="200" as="targetPoint" />
          </mxGeometry>
        </mxCell>
        <mxCell id="z3rrXsJSDogQtgI-2m5f-4" value="" style="endArrow=classic;html=1;exitX=0.309;exitY=0.002;exitDx=0;exitDy=0;exitPerimeter=0;entryX=0.158;entryY=1.177;entryDx=0;entryDy=0;entryPerimeter=0;" parent="xevxtzLHdb0Cjb-lHdhE-1" edge="1" target="9yn_4jRRa91daBQ7kdsd-7" source="z3rrXsJSDogQtgI-2m5f-0">
          <mxGeometry width="50" height="50" relative="1" as="geometry">
            <mxPoint x="420" y="362" as="sourcePoint" />
            <mxPoint x="420" y="324" as="targetPoint" />
          </mxGeometry>
        </mxCell>
        <mxCell id="z3rrXsJSDogQtgI-2m5f-10" value="" style="endArrow=classic;html=1;exitX=0.082;exitY=-0.004;exitDx=0;exitDy=0;exitPerimeter=0;entryX=0.882;entryY=0.992;entryDx=0;entryDy=0;entryPerimeter=0;" parent="xevxtzLHdb0Cjb-lHdhE-1" source="z3rrXsJSDogQtgI-2m5f-6" edge="1" target="9yn_4jRRa91daBQ7kdsd-7">
          <mxGeometry width="50" height="50" relative="1" as="geometry">
            <mxPoint x="580" y="362" as="sourcePoint" />
            <mxPoint x="572" y="360" as="targetPoint" />
          </mxGeometry>
        </mxCell>
        <mxCell id="z3rrXsJSDogQtgI-2m5f-26" value="[serializible]Rocket" style="swimlane;fontStyle=1;align=center;verticalAlign=top;childLayout=stackLayout;horizontal=1;startSize=26;horizontalStack=0;resizeParent=1;resizeParentMax=0;resizeLast=0;collapsible=1;marginBottom=0;" parent="xevxtzLHdb0Cjb-lHdhE-1" vertex="1">
          <mxGeometry y="238" width="160" height="180" as="geometry" />
        </mxCell>
        <mxCell id="z3rrXsJSDogQtgI-2m5f-27" value="- floor: int&#xa;- height: float&#xa;+ target: Unit" style="text;strokeColor=none;fillColor=none;align=left;verticalAlign=top;spacingLeft=4;spacingRight=4;overflow=hidden;rotatable=0;points=[[0,0.5],[1,0.5]];portConstraint=eastwest;" parent="z3rrXsJSDogQtgI-2m5f-26" vertex="1">
          <mxGeometry y="26" width="160" height="94" as="geometry" />
        </mxCell>
        <mxCell id="z3rrXsJSDogQtgI-2m5f-28" value="" style="line;strokeWidth=1;fillColor=none;align=left;verticalAlign=middle;spacingTop=-1;spacingLeft=3;spacingRight=3;rotatable=0;labelPosition=right;points=[];portConstraint=eastwest;" parent="z3rrXsJSDogQtgI-2m5f-26" vertex="1">
          <mxGeometry y="120" width="160" height="8" as="geometry" />
        </mxCell>
        <mxCell id="z3rrXsJSDogQtgI-2m5f-29" value="+ destory(Unit): bool&#xa;+ move(): void&#xa;" style="text;strokeColor=none;fillColor=none;align=left;verticalAlign=top;spacingLeft=4;spacingRight=4;overflow=hidden;rotatable=0;points=[[0,0.5],[1,0.5]];portConstraint=eastwest;" parent="z3rrXsJSDogQtgI-2m5f-26" vertex="1">
          <mxGeometry y="128" width="160" height="52" as="geometry" />
        </mxCell>
        <mxCell id="z3rrXsJSDogQtgI-2m5f-30" value="" style="endArrow=classic;html=1;exitX=0.923;exitY=-0.002;exitDx=0;exitDy=0;exitPerimeter=0;entryX=0;entryY=1;entryDx=0;entryDy=0;" parent="xevxtzLHdb0Cjb-lHdhE-1" source="z3rrXsJSDogQtgI-2m5f-26" target="GBKaKPMio_im-7j3qKZX-0" edge="1">
          <mxGeometry width="50" height="50" relative="1" as="geometry">
            <mxPoint x="150" y="308" as="sourcePoint" />
            <mxPoint x="151" y="200" as="targetPoint" />
          </mxGeometry>
        </mxCell>
        <mxCell id="z3rrXsJSDogQtgI-2m5f-0" value="[serializible]GroundUnitRLS" style="swimlane;fontStyle=1;align=center;verticalAlign=top;childLayout=stackLayout;horizontal=1;startSize=26;horizontalStack=0;resizeParent=1;resizeParentMax=0;resizeLast=0;collapsible=1;marginBottom=0;" parent="xevxtzLHdb0Cjb-lHdhE-1" vertex="1">
          <mxGeometry x="360" y="410" width="180" height="134" as="geometry" />
        </mxCell>
        <mxCell id="z3rrXsJSDogQtgI-2m5f-1" value="- radius: float&#xa;- angle: float&#xa;- underWatching: List&lt;AirUnit&gt;&#xa;- subLSid: int" style="text;strokeColor=none;fillColor=none;align=left;verticalAlign=top;spacingLeft=4;spacingRight=4;overflow=hidden;rotatable=0;points=[[0,0.5],[1,0.5]];portConstraint=eastwest;" parent="z3rrXsJSDogQtgI-2m5f-0" vertex="1">
          <mxGeometry y="26" width="180" height="74" as="geometry" />
        </mxCell>
        <mxCell id="z3rrXsJSDogQtgI-2m5f-2" value="" style="line;strokeWidth=1;fillColor=none;align=left;verticalAlign=middle;spacingTop=-1;spacingLeft=3;spacingRight=3;rotatable=0;labelPosition=right;points=[];portConstraint=eastwest;" parent="z3rrXsJSDogQtgI-2m5f-0" vertex="1">
          <mxGeometry y="100" width="180" height="8" as="geometry" />
        </mxCell>
        <mxCell id="z3rrXsJSDogQtgI-2m5f-3" value="+ method(type): type" style="text;strokeColor=none;fillColor=none;align=left;verticalAlign=top;spacingLeft=4;spacingRight=4;overflow=hidden;rotatable=0;points=[[0,0.5],[1,0.5]];portConstraint=eastwest;" parent="z3rrXsJSDogQtgI-2m5f-0" vertex="1">
          <mxGeometry y="108" width="180" height="26" as="geometry" />
        </mxCell>
        <mxCell id="z3rrXsJSDogQtgI-2m5f-6" value="[serializible]GroundUnitLS" style="swimlane;fontStyle=1;align=center;verticalAlign=top;childLayout=stackLayout;horizontal=1;startSize=26;horizontalStack=0;resizeParent=1;resizeParentMax=0;resizeLast=0;collapsible=1;marginBottom=0;" parent="xevxtzLHdb0Cjb-lHdhE-1" vertex="1">
          <mxGeometry x="560" y="410" width="170" height="104" as="geometry" />
        </mxCell>
        <mxCell id="z3rrXsJSDogQtgI-2m5f-7" value="-  controlRLSid: int&#xa;- List&lt;Rocket&gt;&#xa;" style="text;strokeColor=none;fillColor=none;align=left;verticalAlign=top;spacingLeft=4;spacingRight=4;overflow=hidden;rotatable=0;points=[[0,0.5],[1,0.5]];portConstraint=eastwest;" parent="z3rrXsJSDogQtgI-2m5f-6" vertex="1">
          <mxGeometry y="26" width="170" height="44" as="geometry" />
        </mxCell>
        <mxCell id="z3rrXsJSDogQtgI-2m5f-8" value="" style="line;strokeWidth=1;fillColor=none;align=left;verticalAlign=middle;spacingTop=-1;spacingLeft=3;spacingRight=3;rotatable=0;labelPosition=right;points=[];portConstraint=eastwest;" parent="z3rrXsJSDogQtgI-2m5f-6" vertex="1">
          <mxGeometry y="70" width="170" height="8" as="geometry" />
        </mxCell>
        <mxCell id="z3rrXsJSDogQtgI-2m5f-9" value="+ method(type): type" style="text;strokeColor=none;fillColor=none;align=left;verticalAlign=top;spacingLeft=4;spacingRight=4;overflow=hidden;rotatable=0;points=[[0,0.5],[1,0.5]];portConstraint=eastwest;" parent="z3rrXsJSDogQtgI-2m5f-6" vertex="1">
          <mxGeometry y="78" width="170" height="26" as="geometry" />
        </mxCell>
        <mxCell id="LkAEAFdgCq7Hv-iQlPZT-1" value="[serializible]Scenario" style="swimlane;fontStyle=1;align=center;verticalAlign=top;childLayout=stackLayout;horizontal=1;startSize=26;horizontalStack=0;resizeParent=1;resizeParentMax=0;resizeLast=0;collapsible=1;marginBottom=0;" vertex="1" parent="xevxtzLHdb0Cjb-lHdhE-1">
          <mxGeometry x="12" y="499" width="190" height="142" as="geometry" />
        </mxCell>
        <mxCell id="LkAEAFdgCq7Hv-iQlPZT-2" value="+ map:TerrainMap&#xa;+ units: List&lt;Unit&gt;&#xa;+ trace: Trace" style="text;strokeColor=none;fillColor=none;align=left;verticalAlign=top;spacingLeft=4;spacingRight=4;overflow=hidden;rotatable=0;points=[[0,0.5],[1,0.5]];portConstraint=eastwest;" vertex="1" parent="LkAEAFdgCq7Hv-iQlPZT-1">
          <mxGeometry y="26" width="190" height="54" as="geometry" />
        </mxCell>
        <mxCell id="LkAEAFdgCq7Hv-iQlPZT-3" value="" style="line;strokeWidth=1;fillColor=none;align=left;verticalAlign=middle;spacingTop=-1;spacingLeft=3;spacingRight=3;rotatable=0;labelPosition=right;points=[];portConstraint=eastwest;" vertex="1" parent="LkAEAFdgCq7Hv-iQlPZT-1">
          <mxGeometry y="80" width="190" height="8" as="geometry" />
        </mxCell>
        <mxCell id="LkAEAFdgCq7Hv-iQlPZT-4" value="+ run(): void&#xa;+ pause(): void()&#xa;+ stop(): void()" style="text;strokeColor=none;fillColor=none;align=left;verticalAlign=top;spacingLeft=4;spacingRight=4;overflow=hidden;rotatable=0;points=[[0,0.5],[1,0.5]];portConstraint=eastwest;" vertex="1" parent="LkAEAFdgCq7Hv-iQlPZT-1">
          <mxGeometry y="88" width="190" height="54" as="geometry" />
        </mxCell>
        <mxCell id="LkAEAFdgCq7Hv-iQlPZT-6" value="[serializeble]Trace" style="swimlane;fontStyle=1;align=center;verticalAlign=top;childLayout=stackLayout;horizontal=1;startSize=26;horizontalStack=0;resizeParent=1;resizeParentMax=0;resizeLast=0;collapsible=1;marginBottom=0;" vertex="1" parent="xevxtzLHdb0Cjb-lHdhE-1">
          <mxGeometry x="520" y="30" width="160" height="100" as="geometry" />
        </mxCell>
        <mxCell id="LkAEAFdgCq7Hv-iQlPZT-7" value="+ checkpoints: List&lt;Point&gt;" style="text;strokeColor=none;fillColor=none;align=left;verticalAlign=top;spacingLeft=4;spacingRight=4;overflow=hidden;rotatable=0;points=[[0,0.5],[1,0.5]];portConstraint=eastwest;" vertex="1" parent="LkAEAFdgCq7Hv-iQlPZT-6">
          <mxGeometry y="26" width="160" height="26" as="geometry" />
        </mxCell>
        <mxCell id="LkAEAFdgCq7Hv-iQlPZT-8" value="" style="line;strokeWidth=1;fillColor=none;align=left;verticalAlign=middle;spacingTop=-1;spacingLeft=3;spacingRight=3;rotatable=0;labelPosition=right;points=[];portConstraint=eastwest;" vertex="1" parent="LkAEAFdgCq7Hv-iQlPZT-6">
          <mxGeometry y="52" width="160" height="8" as="geometry" />
        </mxCell>
        <mxCell id="LkAEAFdgCq7Hv-iQlPZT-9" value="+ splineCorrect(): void&#xa;+ sparce(): void" style="text;strokeColor=none;fillColor=none;align=left;verticalAlign=top;spacingLeft=4;spacingRight=4;overflow=hidden;rotatable=0;points=[[0,0.5],[1,0.5]];portConstraint=eastwest;" vertex="1" parent="LkAEAFdgCq7Hv-iQlPZT-6">
          <mxGeometry y="60" width="160" height="40" as="geometry" />
        </mxCell>
      </root>
    </mxGraphModel>
  </diagram>
  <diagram id="YD2MWyk-hJIiR25DTZzc" name="Interfaces">
    <mxGraphModel dx="1038" dy="580" grid="1" gridSize="10" guides="1" tooltips="1" connect="1" arrows="1" fold="1" page="1" pageScale="1" pageWidth="827" pageHeight="1169" math="0" shadow="0">
      <root>
        <mxCell id="tW01YdA_qZaacyc1Cl3Z-0" />
        <mxCell id="tW01YdA_qZaacyc1Cl3Z-1" parent="tW01YdA_qZaacyc1Cl3Z-0" />
        <mxCell id="GxY1e2gYfEGgJJcN6WvV-0" value="&lt;p style=&quot;margin: 0px ; margin-top: 4px ; text-align: center&quot;&gt;&lt;i&gt;&amp;lt;&amp;lt;Interface&amp;gt;&amp;gt;&lt;/i&gt;&lt;br&gt;&lt;b&gt;IFileManager&lt;/b&gt;&lt;/p&gt;&lt;hr size=&quot;1&quot;&gt;&lt;p style=&quot;margin: 0px ; margin-left: 4px&quot;&gt;+ field1: Type&lt;br&gt;+ field2: Type&lt;/p&gt;&lt;hr size=&quot;1&quot;&gt;&lt;p style=&quot;margin: 0px ; margin-left: 4px&quot;&gt;+ saveScenario(): bool&lt;/p&gt;" style="verticalAlign=top;align=left;overflow=fill;fontSize=12;fontFamily=Helvetica;html=1;" vertex="1" parent="tW01YdA_qZaacyc1Cl3Z-1">
          <mxGeometry x="40" y="40" width="190" height="140" as="geometry" />
        </mxCell>
      </root>
    </mxGraphModel>
  </diagram>
</mxfile>
